<mxfile host="Electron" modified="2024-04-27T18:27:21.561Z" agent="Mozilla/5.0 (Windows NT 10.0; Win64; x64) AppleWebKit/537.36 (KHTML, like Gecko) draw.io/24.1.0 Chrome/120.0.6099.109 Electron/28.1.0 Safari/537.36" etag="v6rc7BpHDf2cl4GISx3z" version="24.1.0" type="device">
  <diagram name="Page-1" id="cKlj5dTc_YjszjbgUNOs">
    <mxGraphModel dx="1276" dy="614" grid="1" gridSize="10" guides="1" tooltips="1" connect="1" arrows="1" fold="1" page="1" pageScale="1" pageWidth="850" pageHeight="1100" math="0" shadow="0">
      <root>
        <mxCell id="0" />
        <mxCell id="1" parent="0" />
        <mxCell id="fdF0OppxGlN_f6pJ5PYG-5" style="edgeStyle=orthogonalEdgeStyle;rounded=0;orthogonalLoop=1;jettySize=auto;html=1;exitX=1;exitY=0.5;exitDx=0;exitDy=0;" edge="1" parent="1" source="fdF0OppxGlN_f6pJ5PYG-1" target="fdF0OppxGlN_f6pJ5PYG-2">
          <mxGeometry relative="1" as="geometry" />
        </mxCell>
        <mxCell id="fdF0OppxGlN_f6pJ5PYG-1" value="User" style="rounded=0;whiteSpace=wrap;html=1;" vertex="1" parent="1">
          <mxGeometry x="120" y="110" width="120" height="60" as="geometry" />
        </mxCell>
        <mxCell id="fdF0OppxGlN_f6pJ5PYG-8" style="edgeStyle=orthogonalEdgeStyle;rounded=0;orthogonalLoop=1;jettySize=auto;html=1;exitX=0.5;exitY=1;exitDx=0;exitDy=0;entryX=0;entryY=0.5;entryDx=0;entryDy=0;" edge="1" parent="1" source="fdF0OppxGlN_f6pJ5PYG-2" target="fdF0OppxGlN_f6pJ5PYG-7">
          <mxGeometry relative="1" as="geometry" />
        </mxCell>
        <mxCell id="fdF0OppxGlN_f6pJ5PYG-2" value="Cart" style="rounded=0;whiteSpace=wrap;html=1;" vertex="1" parent="1">
          <mxGeometry x="350" y="110" width="120" height="60" as="geometry" />
        </mxCell>
        <mxCell id="fdF0OppxGlN_f6pJ5PYG-9" style="edgeStyle=orthogonalEdgeStyle;rounded=0;orthogonalLoop=1;jettySize=auto;html=1;exitX=0.5;exitY=1;exitDx=0;exitDy=0;entryX=1;entryY=0.5;entryDx=0;entryDy=0;" edge="1" parent="1" source="fdF0OppxGlN_f6pJ5PYG-6" target="fdF0OppxGlN_f6pJ5PYG-7">
          <mxGeometry relative="1" as="geometry" />
        </mxCell>
        <mxCell id="fdF0OppxGlN_f6pJ5PYG-6" value="Product" style="rounded=0;whiteSpace=wrap;html=1;" vertex="1" parent="1">
          <mxGeometry x="610" y="110" width="120" height="60" as="geometry" />
        </mxCell>
        <mxCell id="fdF0OppxGlN_f6pJ5PYG-7" value="Product to cart" style="rounded=0;whiteSpace=wrap;html=1;" vertex="1" parent="1">
          <mxGeometry x="480" y="280" width="120" height="60" as="geometry" />
        </mxCell>
      </root>
    </mxGraphModel>
  </diagram>
</mxfile>
